PathFileType	4	(X/Y/Z)	C:\Users\Biomechanik\Documents\powerlifting_model\powerlifing_model\simulations\Athlete_03\25_03_31\Walking_01\c3dfile.trc
DataRate	CameraRate	NumFrames	NumMarkers	Units	OrigDataRate	OrigDataStartFrame	OrigNumFrames
200.0	200.0	6	53	mm	200.0	874	239	
Frame#	Time	GLAB			RFHD			LFHD			C7			T6			SPINMOL			SPINM2			SPINM3			T12			BELTOL			BELT2			BELT3			SACROL			SACR2			SACR3			LTHOL			LTH2			LTH3			LSHAOL			LSHA2			LSHA3			LHEE			LTOE			LM5			RTHOL			RTH2			RTH3			RSHAOL			RSHA2			RSHA3			RHEE			RTOE			RM5			STRN			XIPH			LACR			LUAOL			LUA2			LUA3			LLAOL			LLA2			LLA3			LWRR			LWRU			RACR			RUAOL			RUA2			RUA3			RLAOL			RLA2			RLA3			RWRR			RWRU			
		X1	Y1	Z1	X2	Y2	Z2	X3	Y3	Z3	X4	Y4	Z4	X5	Y5	Z5	X6	Y6	Z6	X7	Y7	Z7	X8	Y8	Z8	X9	Y9	Z9	X10	Y10	Z10	X11	Y11	Z11	X12	Y12	Z12	X13	Y13	Z13	X14	Y14	Z14	X15	Y15	Z15	X16	Y16	Z16	X17	Y17	Z17	X18	Y18	Z18	X19	Y19	Z19	X20	Y20	Z20	X21	Y21	Z21	X22	Y22	Z22	X23	Y23	Z23	X24	Y24	Z24	X25	Y25	Z25	X26	Y26	Z26	X27	Y27	Z27	X28	Y28	Z28	X29	Y29	Z29	X30	Y30	Z30	X31	Y31	Z31	X32	Y32	Z32	X33	Y33	Z33	X34	Y34	Z34	X35	Y35	Z35	X36	Y36	Z36	X37	Y37	Z37	X38	Y38	Z38	X39	Y39	Z39	X40	Y40	Z40	X41	Y41	Z41	X42	Y42	Z42	X43	Y43	Z43	X44	Y44	Z44	X45	Y45	Z45	X46	Y46	Z46	X47	Y47	Z47	X48	Y48	Z48	X49	Y49	Z49	X50	Y50	Z50	X51	Y51	Z51	X52	Y52	Z52	X53	Y53	Z53	
874	4.365	173.13843	1610.4084	-694.76807	235.98856	1637.4928	-642.72339	97.87738	1630.9196	-653.23743	164.51097	1448.2594	-470.16516	162.35788	1278.9885	-412.01913	141.69487	1238.3313	-404.62631	191.23386	1231.7285	-397.99265	158.9801	1174.5579	-409.51038	163.51047	1109.45	-434.45291	149.33195	1075.3901	-397.13705	199.83926	1074.4469	-395.41745	171.92685	1014.0146	-390.90125	157.17348	962.66095	-406.99139	208.48946	962.40546	-411.08768	183.87714	903.03546	-394.70483	6.7014399	678.84064	-498.82245	38.669277	625.43573	-449.50134	23.709467	619.62183	-496.96121	33.493782	321.5379	-479.32278	47.85191	261.31659	-429.17542	43.531471	260.17169	-479.3132	143.13771	72.031403	-406.35724	129.18758	44.672852	-623.92566	30.516531	31.810518	-570.26147	387.24307	689.57513	-570.81677	399.52881	660.98486	-643.50336	383.84192	637.57935	-602.7597	371.63669	406.85208	-568.48785	362.68661	328.93097	-565.45062	348.38937	362.12842	-531.79456	213.2511	197.78215	-415.29541	255.37772	78.352379	-586.18719	341.49274	88.00779	-516.95245	172.08919	1348.2371	-639.79858	175.37669	1203.915	-655.85498	-6.7886739	1408.7478	-552.18665	-108.81012	1254.0864	-556.76923	-128.4317	1191.6781	-548.49988	-104.11668	1199.1715	-593.01819	-151.65163	995.36536	-615.51001	-135.04837	921.5531	-593.11621	-147.7596	938.43958	-638.37823	-143.37885	846.02563	-685.40662	-76.657745	863.93872	-725.14941	338.18939	1406.6433	-549.97943	439.89133	1260.9657	-524.31055	449.97345	1198.9275	-545.80688	461.07831	1205.1097	-495.86182	500.41724	986.32727	-525.28302	530.23053	936.013	-579.71198	506.38229	924.68347	-537.63043	524.49506	844.89478	-576.86835	453.54105	826.18829	-612.38843
875	4.37	173.3466	1610.3737	-701.16223	236.2189	1637.3533	-649.08972	98.098785	1631.0479	-659.67944	164.33946	1448.3282	-476.53287	162.08546	1279.0758	-418.30478	141.42616	1238.4189	-410.87613	190.95581	1231.8171	-404.28708	158.73322	1174.6516	-415.75323	163.36977	1109.5392	-440.67078	149.50876	1075.3457	-403.11847	200.01454	1074.4449	-401.5593	172.16661	1013.9903	-396.97763	157.44461	962.77197	-412.97931	208.79596	962.54016	-417.22067	184.16696	903.10602	-400.91751	6.4956226	679.31366	-502.57318	38.59903	626.35986	-452.82315	23.566103	620.11377	-500.20535	33.55666	321.96542	-480.43896	47.995422	261.97583	-430.04861	43.602211	260.5957	-480.18546	143.29179	72.567802	-406.57104	129.17125	44.639091	-624.06049	30.54019	31.807259	-570.31116	387.4317	690.01477	-579.54352	398.55063	662.02789	-652.67499	383.6026	638.33966	-611.75403	370.94904	404.08609	-580.47662	361.74075	326.09799	-579.80115	347.88812	358.3266	-544.96661	213.13509	190.36766	-432.70966	255.04208	77.080254	-607.77411	341.31818	84.340881	-538.43848	171.94058	1348.252	-646.12732	174.99699	1203.9038	-661.94202	-6.9070988	1409.0153	-558.56702	-109.19112	1254.6687	-563.75519	-128.94583	1192.2697	-555.75348	-104.57722	1199.9164	-600.2334	-152.15823	996.42059	-624.66022	-135.43991	922.34778	-603.26532	-148.07159	939.84436	-648.32312	-143.27605	848.09839	-696.65369	-76.608269	866.83704	-736.06122	338.06931	1406.5293	-556.20483	439.68549	1260.8954	-529.61108	449.86658	1198.7633	-550.75122	460.64346	1205.1636	-500.767	500.27411	986.41016	-528.50574	530.78107	935.67664	-582.12976	506.4444	924.64478	-540.34283	525.10376	844.54077	-578.57147	454.61176	825.43182	-614.76312
876	4.375	173.57047	1610.2808	-707.56573	236.46426	1637.1572	-655.46588	98.335976	1631.1147	-666.13037	164.18478	1448.3422	-482.90771	161.8526	1279.1125	-424.58859	141.20155	1238.4546	-417.11984	190.72421	1231.8599	-410.57458	158.53484	1174.6949	-421.98752	163.28432	1109.5778	-446.8775	149.74866	1075.2576	-409.09528	200.25204	1074.3909	-407.7027	172.45898	1013.9182	-403.04501	157.76747	962.84381	-418.9538	209.1559	962.61639	-423.33453	184.48251	903.1236	-407.12897	6.2818184	679.75513	-506.38486	38.477093	627.24146	-456.19815	23.405209	620.57819	-503.51028	33.613468	322.39777	-481.60229	48.131393	262.64844	-430.95984	43.665874	261.02499	-481.09378	143.43994	73.133896	-406.78375	129.14894	44.605953	-624.19763	30.563892	31.804371	-570.36346	387.57214	690.36963	-588.16583	397.56497	662.93713	-661.71863	383.30298	638.99457	-620.62378	370.23135	401.24356	-592.3949	360.86084	323.24921	-594.09674	347.37393	354.44781	-558.12628	213.12424	182.90082	-450.36502	254.79752	75.878212	-629.36407	341.24954	80.752296	-560.00574	171.81088	1348.1996	-652.46252	174.63737	1203.8221	-668.00836	-7.004755	1409.2123	-564.95624	-109.54935	1255.1901	-570.73663	-129.42754	1192.8016	-562.9978	-105.0197	1200.6019	-607.44586	-152.64525	997.43665	-633.79382	-135.81328	923.11566	-613.39606	-148.36316	941.21875	-658.24115	-143.14894	850.15387	-707.85846	-76.535255	869.71307	-746.91473	337.9689	1406.3596	-562.42957	439.4949	1260.7786	-534.91852	449.77914	1198.5573	-555.7074	460.22964	1205.1713	-505.68777	500.14395	986.46063	-531.77441	531.32715	935.32599	-584.60107	506.51163	924.57446	-543.12384	525.70319	844.16913	-580.33502	455.68811	824.68256	-617.22839
877	4.38	173.80971	1610.1293	-713.97949	236.72429	1636.9041	-661.85321	98.588776	1631.1198	-672.5907	164.04782	1448.3008	-489.28918	161.66089	1279.0977	-430.87146	141.02226	1238.4375	-423.35858	190.54008	1231.8555	-416.85663	158.38556	1174.6864	-428.21466	163.25319	1109.5656	-453.07452	150.04619	1075.1289	-415.073	200.54657	1074.2886	-413.85083	172.79791	1013.8026	-409.1062	158.13707	962.8761	-424.91971	209.56229	962.63391	-429.43637	184.82068	903.09045	-413.33365	6.0619254	680.1629	-510.25455	38.310593	628.07886	-459.62555	23.230085	621.01257	-506.87497	33.664677	322.8334	-482.80984	48.261158	263.33328	-431.90607	43.722633	261.45804	-482.03513	143.58287	73.725792	-406.99612	129.12054	44.573399	-624.33527	30.587513	31.802189	-570.41663	387.65436	690.633	-596.67621	396.57205	663.70258	-670.62677	382.93494	639.53583	-629.36359	369.4819	398.33646	-604.2348	360.04776	320.39835	-608.32458	346.84454	350.50864	-571.26605	213.21309	175.41342	-468.25867	254.65161	74.762001	-650.94598	341.29092	77.268181	-581.63934	171.7005	1348.0809	-658.80432	174.29956	1203.6719	-674.05975	-7.0808563	1409.3392	-571.35303	-109.88426	1255.6498	-577.71136	-129.87506	1193.2729	-570.23309	-105.44279	1201.2292	-614.65552	-153.11076	998.41351	-642.91058	-136.16826	923.85681	-623.50623	-148.63245	942.56207	-668.1311	-142.99872	852.1911	-719.01721	-76.437889	872.56329	-757.70618	337.88885	1406.1362	-568.65442	439.32043	1260.6169	-540.23419	449.71133	1198.3099	-560.67804	459.83694	1205.1334	-510.62601	500.02765	986.47968	-535.09399	531.86591	934.9613	-587.13361	506.58417	924.47321	-545.97858	526.29285	843.78113	-582.1662	456.76593	823.93884	-619.78351
878	4.385	174.06418	1609.9187	-720.40417	236.99873	1636.5938	-668.25238	98.857117	1631.0618	-679.06085	163.92976	1448.2037	-495.67712	161.51183	1279.0305	-437.15433	140.8893	1238.3673	-429.59372	190.40424	1231.8026	-423.13501	158.28581	1174.6255	-434.43646	163.27516	1109.5016	-459.26331	150.39569	1074.9635	-421.05637	200.89265	1074.1407	-420.0065	173.17732	1013.6465	-415.16406	158.54767	962.86792	-430.88187	210.00768	962.59222	-435.53262	185.17775	903.00916	-419.52609	5.8381519	680.53467	-514.17883	38.107487	628.87115	-463.10443	23.044312	621.41504	-510.29773	33.71064	323.27051	-484.06027	48.384914	264.02853	-432.88571	43.772697	261.89297	-483.00793	143.72104	74.339355	-407.20917	129.08588	44.541512	-624.47168	30.61083	31.80122	-570.46832	387.66809	690.79742	-605.06763	395.57074	664.31598	-679.39136	382.49036	639.95551	-637.96698	368.69901	395.37686	-615.98871	359.30136	317.55902	-622.47272	346.29776	346.52618	-584.37927	213.39497	167.93768	-486.38724	254.61197	73.747841	-672.5083	341.4454	73.914459	-603.32385	171.60985	1347.8969	-665.15265	173.9854	1203.4548	-680.10327	-7.1345887	1409.3965	-577.75549	-110.19514	1256.0485	-584.67719	-130.28729	1193.683	-577.45947	-105.84512	1201.7986	-621.86212	-153.55275	999.3515	-652.01001	-136.50436	924.57141	-633.59412	-148.87804	943.87384	-677.99164	-142.82649	854.20923	-730.12653	-76.315399	875.38409	-768.4317	337.82977	1405.8608	-574.8811	439.16324	1260.4115	-545.55994	449.66333	1198.021	-565.66541	459.46555	1205.0516	-515.58344	499.92596	986.46814	-538.46893	532.3952	934.58252	-589.73444	506.66254	924.34216	-548.91016	526.87201	843.37756	-584.07184	457.84106	823.19897	-622.42761
879	4.39	174.33392	1609.6484	-726.84039	237.28755	1636.2262	-674.66461	99.141106	1630.9407	-685.54126	163.83188	1448.0505	-502.07108	161.40657	1278.9102	-443.43823	140.80357	1238.243	-435.82642	190.3172	1231.6995	-429.41162	158.23587	1174.511	-440.65454	163.34891	1109.3853	-465.44559	150.7914	1074.7637	-427.04935	201.28465	1073.9498	-426.17218	173.59119	1013.4528	-421.22144	158.99309	962.81854	-436.84534	210.48457	962.49127	-441.62897	185.54944	902.88171	-425.70172	5.6126962	680.86835	-518.15369	37.876415	629.61731	-466.63345	22.851667	621.784	-513.77606	33.751633	323.7066	-485.35361	48.502171	264.73157	-433.89856	43.81633	262.32773	-484.01208	143.85487	74.970512	-407.42358	129.04475	44.510353	-624.60449	30.63357	31.802061	-570.51532	387.60284	690.85443	-613.33252	394.5589	664.77008	-688.00385	381.96191	640.24646	-646.4267	367.88144	392.37671	-627.64935	358.6207	314.745	-636.5296	345.73111	342.51785	-597.45923	213.66219	160.50626	-504.74637	254.68542	72.852325	-694.03918	341.71524	70.716499	-625.04285	171.53949	1347.6477	-671.50769	173.69679	1203.1733	-686.14764	-7.1651225	1409.3854	-584.16235	-110.48078	1256.3857	-591.63245	-130.66402	1194.0315	-584.67712	-106.22523	1202.3109	-629.06525	-153.9693	1000.2507	-661.09113	-136.82103	925.25964	-643.65759	-149.09877	945.15344	-687.82129	-142.63319	856.20764	-741.18323	-76.167015	878.17188	-779.08832	337.7923	1405.535	-581.11127	439.02441	1260.1641	-550.89752	449.63553	1197.6906	-570.67175	459.11581	1204.9269	-520.56171	499.83939	986.42603	-541.90289	532.91376	934.18921	-592.41016	506.7475	924.18225	-551.92047	527.44012	842.95972	-586.05902	458.90985	822.46124	-625.15869
